<svg id="Layer_1" data-name="Layer 1" xmlns="http://www.w3.org/2000/svg" viewBox="0 0 573.5 574.92"><defs><style>.cls-1{fill:#533896;}.cls-2{fill:#673fb4;}.cls-3{fill:#4e9144;}.cls-4{fill:#62be56;}</style></defs><title>flower</title><path class="cls-1" d="M637.83,294.57c51,106.08,48.51,202.63-5.67,215.64S492.65,447.77,441.6,341.68,447.27,126,447.27,126,586.77,188.48,637.83,294.57Z" transform="translate(-373.72 -72.28)"/><path class="cls-1" d="M866.55,327.87C811,432.81,722.43,506.39,668.83,492.22s-52-110.72,3.61-215.66S870.17,112.2,870.17,112.2,922.15,222.93,866.55,327.87Z" transform="translate(-373.72 -72.28)"/><path class="cls-2" d="M760.49,275.16c0,112-46.4,202.88-103.63,202.88S553.23,387.21,553.23,275.16,656.86,72.28,656.86,72.28,760.49,163.11,760.49,275.16Z" transform="translate(-373.72 -72.28)"/><path class="cls-3" d="M883.28,495.07C811.64,595,712.17,661.28,661.11,643S626.73,528.93,698.37,429,893.07,243.78,947,232.23C947,232.23,954.92,395.1,883.28,495.07Z" transform="translate(-373.72 -72.28)"/><path class="cls-4" d="M654.24,431.1c79.32,97,103.43,192.09,53.87,212.3s-154-42.07-233.36-139.1-113-216.41-97.24-254.6C377.51,249.7,574.92,334.06,654.24,431.1Z" transform="translate(-373.72 -72.28)"/></svg>